<svg id="map" xmlns="http://www.w3.org/2000/svg" width="686" height="746" viewBox="0 0 686 746" fill="none">
<rect width="686" height="746" fill="#F5F5F5"/>
<g id="Frame 1">
<rect width="686" height="746" fill="white"/>
<path id="wall" d="M482.5 430.5H476.5M220.5 430.5V480H90V421M220.5 430.5H178.5M220.5 430.5H319.5M90 331.5V421M139 421H156V430.5H178.5M90 421H108M392.5 430.5H387M392.5 430.5H442.5M392.5 430.5V485M178.5 430.5V339.5H186M319.5 430.5V339.5M319.5 430.5H387M319.5 339.5H215.5M319.5 339.5H356.5M387 430.5V339.5M387 339.5H378M387 339.5H398.5M442.5 430.5V339.5M442.5 430.5H476.5M442.5 339.5H419.5M442.5 339.5H476.5V352.5M476.5 430.5V373.5M476.5 430.5V451M392.5 485H476.5M392.5 485V544.5M476.5 485V472.5M476.5 485V490M392.5 544.5V588H476.5V574.5M392.5 544.5H476.5M476.5 544.5V509M476.5 544.5V557" stroke="black" stroke-width="3"/>
<path id="wall_2" d="M90.5 298.5V216.5H175.5M598 297.5V292M344.25 216.5V254M344.25 216.5H312.5M344.25 216.5H373.5M175.5 216.5V292H183.5M175.5 216.5H312.5M312.5 216.5V292M312.5 292H317.5M312.5 292H204M373.5 216.5V292M373.5 216.5H441.5M373.5 292H344.25M373.5 292H379.5M338.5 292H344.25M344.25 292V276M441.5 216.5V254M441.5 216.5H484M484 216.5H598V292M484 216.5V292M484 292H441.5M484 292H564M401.5 292H441.5M441.5 292V276M598 292H585.5" stroke="black" stroke-width="3"/>
<path id="wall_3" d="M598 335V340.5M598 430.5V487.5M598 430.5H554M598 430.5V340.5M510.5 430.5H517M425.5 613H392.5V648M454.5 658H392.5V648M454.5 658V613M454.5 658H517M454.5 613H447.5M454.5 613H470M517 658H598V591.5M517 658V613M517 613H492M517 613V610M598 591.5H517M598 591.5V570.5M517 591.5V595M517 591.5V588.5M598 570.5H517M598 570.5V545M517 570.5V574M517 570.5V567M598 545H517M598 545V487.5M517 545V549.5M517 545V528M598 487.5H517M517 487.5V508.5M517 487.5V479.5M517 430.5V457.5M517 430.5V340.5H524.5M517 430.5H554M554 430.5V340.5M554 340.5H547.5M554 340.5H561.5M598 340.5H583.5M392.5 576.5H355V648H392.5" stroke="black" stroke-width="3"/>
<path id="ladder" d="M156.5 455V431M156.5 455V479.5M156.5 455H160.5M205 455V431M205 455V479.5M205 455H201M180.75 455V431M180.75 455V479.5M180.75 455H176.625M180.75 455H184.5M168.625 455V431M168.625 455V479.5M168.625 455H164.562M168.625 455H172.5M192.875 455V479.5M192.875 455V431M192.875 455H188.688M192.875 455H197M160.5 455V431M160.5 455V479.5M160.5 455H164.562M164.562 455V431M164.562 455V479.5M172.5 455V431M172.5 455V479.5M172.5 455H176.625M176.625 455V431M176.625 455V479.5M184.5 455V431M184.5 455V479.5M184.5 455H188.688M188.688 455V479.5M188.688 455V431M197 455V479.5M197 455H201M197 455V431M201 455V479.5M201 455V431" stroke="black"/>
<path id="ladder_2" d="M373.691 613H392M373.691 613H355M373.691 613V615.804M373.691 647H392M373.691 647H355M373.691 647V644.196M373.691 630H392M373.691 630H355M373.691 630V627.108M373.691 630V632.629M373.691 621.5H392M373.691 621.5H355M373.691 621.5V618.652M373.691 621.5V624.216M373.691 638.5H355M373.691 638.5H392M373.691 638.5V635.564M373.691 638.5V641.392M373.691 615.804H392M373.691 615.804H355M373.691 615.804V618.652M373.691 618.652H392M373.691 618.652H355M373.691 624.216H392M373.691 624.216H355M373.691 624.216V627.108M373.691 627.108H392M373.691 627.108H355M373.691 632.629H392M373.691 632.629H355M373.691 632.629V635.564M373.691 635.564H355M373.691 635.564H392M373.691 641.392H355M373.691 641.392V644.196M373.691 641.392H392M373.691 644.196H355M373.691 644.196H392" stroke="black"/>
<rect id="l1" x="155" y="430" width="65" height="50"/>
<rect id="l2" x="355" y="612" width="37" height="35"/>
<g id="name-boxes" style="pointer-events: none;">
<rect textName="Левое крыло" id="left s" x="65" y="299" width="31" height="33"/>
<rect textName="Правое крыло" id="right s" x="598" y="299" width="33" height="36"/>
<rect textName="401" id="401" x="175" y="217" width="137" height="75"/>
<rect textName="402" id="402" x="179" y="340" width="140" height="90"/>
<rect textName="404" id="404" x="320" y="340" width="67" height="90"/>
<rect textName="403" id="403" x="315" y="230" width="58" height="75"/>
<rect textName="406" id="406" x="389" y="340" width="54" height="90"/>
<rect textName="405" id="405" x="344" y="225" width="130" height="75"/>
<rect textName="407" id="407" x="484" y="217" width="114" height="75"/>
<rect textName="Женский\nтуалет" fontSize="8px" id="ws women" x="518" y="341" width="36" height="89"/>
<rect textName="Мужской\nтуалет" fontSize="8px" id="ws men" x="556" y="341" width="40" height="89"/>
</g>
</g>
<g id="nodes"><circle cx="171.42019653320312" cy="455.7087097167969" r="6" id="node1740164304095" class="ldr"/><circle cx="123.56253051757812" cy="454.9944152832031" r="6" id="node1740164306982"/><circle cx="121.4196548461914" cy="316.4214782714844" r="6" id="node1740164318079"/><circle cx="52.847476959228516" cy="316.4214782714844" r="6" id="node1740164320749"/><circle cx="193.56329345703125" cy="314.9928894042969" r="6" id="node1740164379723"/><circle cx="192.1347198486328" cy="276.4210510253906" r="6" id="node1740164384428" class="a401"/><circle cx="202.13482666015625" cy="352.13616943359375" r="6" id="node1740164385445" class="a402"/><circle cx="326.4219055175781" cy="315.7071838378906" r="6" id="node1740164389426"/><circle cx="326.4219055175781" cy="276.4210205078125" r="6" id="node1740164391780" class="a403"/><circle cx="367.1366271972656" cy="316.42144775390625" r="6" id="node1740164392833"/><circle cx="367.1366271972656" cy="356.42193603515625" r="6" id="node1740164393761" class="a404"/><circle cx="389.27972412109375" cy="316.42144775390625" r="6" id="node1740164395692"/><circle cx="389.27972412109375" cy="277.849609375" r="6" id="node1740164397769" class="a405"/><circle cx="409.27996826171875" cy="316.42144775390625" r="6" id="node1740164399639"/><circle cx="409.2799377441406" cy="350.7075500488281" r="6" id="node1740164400741" class="a406"/><circle cx="494.2808837890625" cy="317.85003662109375" r="6" id="node1740164405481"/><circle cx="565.710205078125" cy="316.4214782714844" r="6" id="node1740164406887"/><circle cx="613.56787109375" cy="317.85003662109375" r="6" id="node1740164408266"/><circle cx="572.8531494140625" cy="280.4209289550781" r="6" id="node1740164411012" class="a407"/><circle cx="571.424560546875" cy="349.27899169921875" r="6" id="node1740164411731" class="mtoilet"/><circle cx="533.5670166015625" cy="348.5646667480469" r="6" id="node1740164412748" class="wtoilet"/><circle cx="494.9951477050781" cy="363.5648498535156" r="6" id="node1740164419840"/><circle cx="466.4234313964844" cy="362.85052490234375" r="6" id="node1740164423242"/><circle cx="494.99517822265625" cy="462.8516540527344" r="6" id="node1740164426721"/><circle cx="461.4233703613281" cy="462.1373291015625" r="6" id="node1740164427944"/><circle cx="529.28125" cy="467.8516845703125" r="6" id="node1740164430655"/><circle cx="494.9951477050781" cy="499.9949035644531" r="6" id="node1740164432846"/><circle cx="463.5662841796875" cy="499.2806091308594" r="6" id="node1740164434194"/><circle cx="495.70947265625" cy="519.2808227539062" r="6" id="node1740164435441"/><circle cx="527.8526611328125" cy="519.2808227539062" r="6" id="node1740164436493"/><circle cx="495.70947265625" cy="553.56689453125" r="6" id="node1740164439466"/><circle cx="527.1383666992188" cy="558.5669555664062" r="6" id="node1740164440919"/><circle cx="494.99517822265625" cy="567.1384887695312" r="6" id="node1740164444494"/><circle cx="464.28057861328125" cy="565.7098999023438" r="6" id="node1740164445742"/><circle cx="494.99517822265625" cy="581.4243774414062" r="6" id="node1740164450351"/><circle cx="524.2811889648438" cy="581.4243774414062" r="6" id="node1740164451341"/><circle cx="494.99517822265625" cy="600.7102661132812" r="6" id="node1740164458905"/><circle cx="527.1383666992188" cy="602.8531494140625" r="6" id="node1740164460949"/><circle cx="478.5664367675781" cy="601.424560546875" r="6" id="node1740164468086"/><circle cx="479.2807312011719" cy="622.1390991210938" r="6" id="node1740164469425"/><circle cx="436.423095703125" cy="602.138916015625" r="6" id="node1740164471495"/><circle cx="436.423095703125" cy="624.281982421875" r="6" id="node1740164472451"/><circle cx="376.4224548339844" cy="602.138916015625" r="6" id="node1740164473610"/><circle cx="374.99383544921875" cy="633.5678100585938" r="6" id="node1740164649170" class="l2"/></g></svg>